<svg id="Layer_1" data-name="Layer 1" xmlns="http://www.w3.org/2000/svg" viewBox="0 0 196.41 66.05"><defs><style>.cls-1{fill:#ec3258;}</style></defs><title>logo</title><path class="cls-1" d="M16.61,1.14l7-.29q4.94-.19,8.5-0.19A59,59,0,0,1,45.31,1.9a15.23,15.23,0,0,1,8.3,4.75q3,3.51,3,10.13a21.36,21.36,0,0,1-4.32,13.58A18.39,18.39,0,0,1,40.8,37.23a75.69,75.69,0,0,0,7.39,15.5q3.84,5.81,7.49,7.44A8.23,8.23,0,0,1,52.22,65a10.88,10.88,0,0,1-6,1.58,11.6,11.6,0,0,1-8.78-3.7,30.31,30.31,0,0,1-6-10.46Q29,45.68,25.34,32.62a11.68,11.68,0,0,0,1.63.1q7,0,10.7-4t3.7-11.28q0-5.28-2.11-7.92T32.35,6.9a27.54,27.54,0,0,0-4.51.38l-11,57.41H1L13,1.33Z" transform="translate(-0.96 -0.66)"/><path class="cls-1" d="M103.15,18.8q4.27,5,4.27,14.3a41.63,41.63,0,0,1-3.31,16.75A28,28,0,0,1,94.17,62a27.42,27.42,0,0,1-15.94,4.56q-9.7,0-14-5T60,47.12a41.29,41.29,0,0,1,3.31-16.7,27.86,27.86,0,0,1,9.89-12.1q6.57-4.51,16-4.51Q98.88,13.81,103.15,18.8Zm-22.8,5.42q-2.59,4.66-4.22,14a77,77,0,0,0-1.63,14.5,12.44,12.44,0,0,0,1.2,6A4.46,4.46,0,0,0,80,60.85q4.51,0,7.06-4.66T91.2,42.13a78.28,78.28,0,0,0,1.73-14.4,12,12,0,0,0-1.25-6,4.61,4.61,0,0,0-4.32-2.11Q82.94,19.57,80.35,24.22Z" transform="translate(-0.96 -0.66)"/><path class="cls-1" d="M131.95,50.14a58.06,58.06,0,0,0-6.86-5.23,34.11,34.11,0,0,1-7.78-6.53,11.49,11.49,0,0,1-2.5-7.49,14.08,14.08,0,0,1,3-8.88,19.71,19.71,0,0,1,8.26-6,30.29,30.29,0,0,1,11.66-2.16A20.76,20.76,0,0,1,147.88,16,7.45,7.45,0,0,1,151.77,23a7.71,7.71,0,0,1-2.54,6.14,9.81,9.81,0,0,1-6.67,2.21,6.2,6.2,0,0,1-4-1.06,18,18,0,0,0,1.34-6.24,5.63,5.63,0,0,0-1.3-4A4.68,4.68,0,0,0,135,18.7a6.88,6.88,0,0,0-7,6.82,6.48,6.48,0,0,0,2.06,4.8,51.61,51.61,0,0,0,7,5.28A36.62,36.62,0,0,1,144.67,42a11.4,11.4,0,0,1,2.5,7.58,14.23,14.23,0,0,1-2.93,8.78,19.44,19.44,0,0,1-8.06,6.1A28.77,28.77,0,0,1,124.7,66.7,26,26,0,0,1,113,64.25q-4.95-2.45-4.94-7.34a6.47,6.47,0,0,1,2.78-5.62,11.18,11.18,0,0,1,6.62-2,9.18,9.18,0,0,1,5.18,1.34,14.4,14.4,0,0,0-1.34,5.47,5.85,5.85,0,0,0,1.34,4.08,5,5,0,0,0,3.94,1.49,7.45,7.45,0,0,0,5.28-2A6.56,6.56,0,0,0,131.95,50.14Z" transform="translate(-0.96 -0.66)"/><path class="cls-1" d="M197.37,25.14q0,8-7.06,12.38t-19.15,4.42H167.8a44.33,44.33,0,0,0-.29,4.9q0,4.8,1.92,7.25T176,56.53a16.13,16.13,0,0,0,7.49-1.78,12.37,12.37,0,0,0,5.28-5q2.3,1.06,2.3,4.22a9.35,9.35,0,0,1-2.64,6.38,17.74,17.74,0,0,1-7.15,4.61,28.16,28.16,0,0,1-9.89,1.68q-8.93,0-13.63-4.94T153,46.54a39.19,39.19,0,0,1,3.31-16,28.34,28.34,0,0,1,10-12.1q6.67-4.61,16.37-4.61Q197.37,13.81,197.37,25.14Zm-24.19-1.06a38.73,38.73,0,0,0-4.7,13.44A18.72,18.72,0,0,0,180.09,34a11.4,11.4,0,0,0,4.7-9.6q0-5.37-4.22-5.38T173.18,24.08Z" transform="translate(-0.96 -0.66)"/></svg>